<svg width="12" height="16" viewBox="0 0 12 16" fill="none" xmlns="http://www.w3.org/2000/svg">
<path d="M2.89168 15.1848C3.47503 15.1855 4.04083 14.9853 4.49391 14.6179L10.7796 9.4291C11.0261 9.23287 11.2251 8.98357 11.362 8.69977C11.4988 8.41597 11.5698 8.10496 11.5698 7.7899C11.5698 7.47484 11.4988 7.16383 11.362 6.88002C11.2251 6.59622 11.0261 6.34693 10.7796 6.15069L4.49391 0.961937C4.1155 0.658738 3.65953 0.46794 3.17795 0.411284C2.69637 0.354628 2.20857 0.434393 1.77012 0.641491C1.38907 0.809453 1.06442 1.08355 0.834942 1.43104C0.605464 1.77854 0.480862 2.18474 0.476014 2.60114V12.9787C0.480862 13.3951 0.605464 13.8013 0.834942 14.1488C1.06442 14.4962 1.38907 14.7703 1.77012 14.9383C2.12245 15.0985 2.50464 15.1825 2.89168 15.1848ZM8.88155 7.7899L2.94098 12.7198V2.97089L8.88155 7.7899Z" fill="#FEFAFB"/>
</svg>
